<mxfile host="65bd71144e">
    <diagram id="BbNGG1gPNLfEPmCk3QYg" name="Page-1">
        <mxGraphModel dx="1554" dy="936" grid="1" gridSize="10" guides="1" tooltips="1" connect="1" arrows="1" fold="1" page="1" pageScale="1" pageWidth="1169" pageHeight="827" math="0" shadow="0">
            <root>
                <mxCell id="0"/>
                <mxCell id="1" parent="0"/>
                <mxCell id="5" value="login" style="rounded=0;whiteSpace=wrap;html=1;" vertex="1" parent="1">
                    <mxGeometry x="330" y="10" width="90" height="40" as="geometry"/>
                </mxCell>
                <mxCell id="9" value="" style="endArrow=none;dashed=1;html=1;entryX=0.5;entryY=1;entryDx=0;entryDy=0;" edge="1" parent="1" target="5">
                    <mxGeometry width="50" height="50" relative="1" as="geometry">
                        <mxPoint x="375" y="800" as="sourcePoint"/>
                        <mxPoint x="470" y="320" as="targetPoint"/>
                    </mxGeometry>
                </mxCell>
                <mxCell id="10" value="autheticator" style="rounded=0;whiteSpace=wrap;html=1;" vertex="1" parent="1">
                    <mxGeometry x="500" y="10" width="90" height="40" as="geometry"/>
                </mxCell>
                <mxCell id="11" value="Dashboard" style="rounded=0;whiteSpace=wrap;html=1;" vertex="1" parent="1">
                    <mxGeometry x="890" y="10" width="90" height="40" as="geometry"/>
                </mxCell>
                <mxCell id="12" value="database" style="rounded=0;whiteSpace=wrap;html=1;" vertex="1" parent="1">
                    <mxGeometry x="700" y="10" width="90" height="40" as="geometry"/>
                </mxCell>
                <mxCell id="13" value="" style="endArrow=none;dashed=1;html=1;entryX=0.5;entryY=1;entryDx=0;entryDy=0;" edge="1" parent="1">
                    <mxGeometry width="50" height="50" relative="1" as="geometry">
                        <mxPoint x="544.23" y="800" as="sourcePoint"/>
                        <mxPoint x="544.23" y="50" as="targetPoint"/>
                    </mxGeometry>
                </mxCell>
                <mxCell id="14" value="" style="endArrow=none;dashed=1;html=1;entryX=0.5;entryY=1;entryDx=0;entryDy=0;" edge="1" parent="1">
                    <mxGeometry width="50" height="50" relative="1" as="geometry">
                        <mxPoint x="750" y="800" as="sourcePoint"/>
                        <mxPoint x="750" y="50" as="targetPoint"/>
                    </mxGeometry>
                </mxCell>
                <mxCell id="15" value="" style="endArrow=none;dashed=1;html=1;entryX=0.5;entryY=1;entryDx=0;entryDy=0;" edge="1" parent="1">
                    <mxGeometry width="50" height="50" relative="1" as="geometry">
                        <mxPoint x="934.29" y="800" as="sourcePoint"/>
                        <mxPoint x="934.29" y="50" as="targetPoint"/>
                    </mxGeometry>
                </mxCell>
                <mxCell id="16" value="users" style="rounded=0;whiteSpace=wrap;html=1;" vertex="1" parent="1">
                    <mxGeometry x="140" y="10" width="90" height="40" as="geometry"/>
                </mxCell>
                <mxCell id="17" value="" style="endArrow=none;dashed=1;html=1;entryX=0.5;entryY=1;entryDx=0;entryDy=0;startArrow=none;" edge="1" parent="1" source="6">
                    <mxGeometry width="50" height="50" relative="1" as="geometry">
                        <mxPoint x="184.29" y="799.9999999999998" as="sourcePoint"/>
                        <mxPoint x="184.29" y="50" as="targetPoint"/>
                    </mxGeometry>
                </mxCell>
                <mxCell id="19" value="" style="endArrow=none;dashed=1;html=1;entryX=0.5;entryY=1;entryDx=0;entryDy=0;startArrow=none;" edge="1" parent="1" source="7" target="6">
                    <mxGeometry width="50" height="50" relative="1" as="geometry">
                        <mxPoint x="184.28999999999996" y="799.9999999999998" as="sourcePoint"/>
                        <mxPoint x="184.28999999999996" y="50" as="targetPoint"/>
                    </mxGeometry>
                </mxCell>
                <mxCell id="6" value="customer" style="shape=umlActor;verticalLabelPosition=bottom;verticalAlign=top;html=1;outlineConnect=0;" vertex="1" parent="1">
                    <mxGeometry x="170" y="100" width="30" height="60" as="geometry"/>
                </mxCell>
                <mxCell id="20" value="" style="endArrow=none;dashed=1;html=1;entryX=0.5;entryY=1;entryDx=0;entryDy=0;startArrow=none;" edge="1" parent="1" source="8" target="7">
                    <mxGeometry width="50" height="50" relative="1" as="geometry">
                        <mxPoint x="184.28999999999996" y="799.9999999999998" as="sourcePoint"/>
                        <mxPoint x="185" y="160" as="targetPoint"/>
                    </mxGeometry>
                </mxCell>
                <mxCell id="7" value="company" style="shape=umlActor;verticalLabelPosition=bottom;verticalAlign=top;html=1;outlineConnect=0;" vertex="1" parent="1">
                    <mxGeometry x="170" y="330" width="30" height="60" as="geometry"/>
                </mxCell>
                <mxCell id="22" value="" style="endArrow=none;dashed=1;html=1;entryX=0.5;entryY=1;entryDx=0;entryDy=0;" edge="1" parent="1" target="8">
                    <mxGeometry width="50" height="50" relative="1" as="geometry">
                        <mxPoint x="184.28999999999996" y="799.9999999999998" as="sourcePoint"/>
                        <mxPoint x="185" y="390" as="targetPoint"/>
                    </mxGeometry>
                </mxCell>
                <mxCell id="8" value="owner" style="shape=umlActor;verticalLabelPosition=bottom;verticalAlign=top;html=1;outlineConnect=0;" vertex="1" parent="1">
                    <mxGeometry x="170" y="600" width="30" height="60" as="geometry"/>
                </mxCell>
                <mxCell id="23" value="" style="endArrow=classic;html=1;" edge="1" parent="1">
                    <mxGeometry width="50" height="50" relative="1" as="geometry">
                        <mxPoint x="220" y="140" as="sourcePoint"/>
                        <mxPoint x="360" y="140" as="targetPoint"/>
                    </mxGeometry>
                </mxCell>
                <mxCell id="24" value="login" style="text;html=1;align=center;verticalAlign=middle;resizable=0;points=[];autosize=1;strokeColor=none;fillColor=none;" vertex="1" parent="1">
                    <mxGeometry x="255" y="95" width="50" height="30" as="geometry"/>
                </mxCell>
                <mxCell id="25" value="" style="endArrow=classic;html=1;" edge="1" parent="1">
                    <mxGeometry width="50" height="50" relative="1" as="geometry">
                        <mxPoint x="360" y="640" as="sourcePoint"/>
                        <mxPoint x="210" y="640" as="targetPoint"/>
                    </mxGeometry>
                </mxCell>
                <mxCell id="26" value="notify" style="text;html=1;align=center;verticalAlign=middle;resizable=0;points=[];autosize=1;strokeColor=none;fillColor=none;" vertex="1" parent="1">
                    <mxGeometry x="245" y="605" width="50" height="30" as="geometry"/>
                </mxCell>
                <mxCell id="27" value="" style="endArrow=classic;html=1;" edge="1" parent="1">
                    <mxGeometry width="50" height="50" relative="1" as="geometry">
                        <mxPoint x="390" y="140" as="sourcePoint"/>
                        <mxPoint x="530" y="140" as="targetPoint"/>
                    </mxGeometry>
                </mxCell>
                <mxCell id="28" value="send credentails" style="text;html=1;align=center;verticalAlign=middle;resizable=0;points=[];autosize=1;strokeColor=none;fillColor=none;" vertex="1" parent="1">
                    <mxGeometry x="410" y="100" width="110" height="30" as="geometry"/>
                </mxCell>
                <mxCell id="29" value="" style="endArrow=classic;html=1;" edge="1" parent="1">
                    <mxGeometry width="50" height="50" relative="1" as="geometry">
                        <mxPoint x="525" y="640" as="sourcePoint"/>
                        <mxPoint x="405" y="640" as="targetPoint"/>
                    </mxGeometry>
                </mxCell>
                <mxCell id="30" value="return result" style="text;html=1;align=center;verticalAlign=middle;resizable=0;points=[];autosize=1;strokeColor=none;fillColor=none;" vertex="1" parent="1">
                    <mxGeometry x="415" y="605" width="90" height="30" as="geometry"/>
                </mxCell>
                <mxCell id="31" value="" style="endArrow=classic;html=1;" edge="1" parent="1">
                    <mxGeometry width="50" height="50" relative="1" as="geometry">
                        <mxPoint x="560" y="320" as="sourcePoint"/>
                        <mxPoint x="740" y="320" as="targetPoint"/>
                    </mxGeometry>
                </mxCell>
                <mxCell id="32" value="validate" style="text;html=1;align=center;verticalAlign=middle;resizable=0;points=[];autosize=1;strokeColor=none;fillColor=none;" vertex="1" parent="1">
                    <mxGeometry x="600" y="135" width="60" height="30" as="geometry"/>
                </mxCell>
                <mxCell id="33" value="" style="endArrow=classic;html=1;" edge="1" parent="1">
                    <mxGeometry width="50" height="50" relative="1" as="geometry">
                        <mxPoint x="705" y="379.9999999999998" as="sourcePoint"/>
                        <mxPoint x="585" y="379.9999999999998" as="targetPoint"/>
                    </mxGeometry>
                </mxCell>
                <mxCell id="35" value="" style="endArrow=classic;html=1;" edge="1" parent="1">
                    <mxGeometry width="50" height="50" relative="1" as="geometry">
                        <mxPoint x="760" y="230" as="sourcePoint"/>
                        <mxPoint x="920" y="230" as="targetPoint"/>
                    </mxGeometry>
                </mxCell>
                <mxCell id="36" value="Directs according to type" style="text;html=1;align=center;verticalAlign=middle;resizable=0;points=[];autosize=1;strokeColor=none;fillColor=none;" vertex="1" parent="1">
                    <mxGeometry x="840" y="275" width="160" height="30" as="geometry"/>
                </mxCell>
            </root>
        </mxGraphModel>
    </diagram>
</mxfile>